<svg width="536" height="102" viewBox="0 0 536 102" fill="none" xmlns="http://www.w3.org/2000/svg">
<path d="M107.486 81V69.384H124.67C129.022 69.384 132.83 68.488 136.094 66.696C139.358 64.84 141.886 62.248 143.678 58.92C145.534 55.592 146.462 51.656 146.462 47.112C146.462 42.696 145.534 38.856 143.678 35.592C141.822 32.264 139.262 29.704 135.998 27.912C132.734 26.056 128.958 25.128 124.67 25.128H107.198V13.512H124.862C129.854 13.512 134.462 14.344 138.686 16.008C142.974 17.672 146.686 20.04 149.822 23.112C153.022 26.12 155.486 29.672 157.214 33.768C159.006 37.864 159.902 42.344 159.902 47.208C159.902 52.072 159.006 56.584 157.214 60.744C155.486 64.84 153.054 68.424 149.918 71.496C146.782 74.504 143.07 76.84 138.782 78.504C134.558 80.168 129.982 81 125.054 81H107.486ZM98.5585 81V13.512H111.614V81H98.5585ZM191.109 81.96C186.245 81.96 181.925 80.936 178.149 78.888C174.373 76.776 171.365 73.896 169.125 70.248C166.949 66.6 165.861 62.44 165.861 57.768C165.861 53.16 166.917 49.064 169.029 45.48C171.205 41.832 174.149 38.952 177.861 36.84C181.573 34.664 185.701 33.576 190.245 33.576C194.725 33.576 198.661 34.6 202.053 36.648C205.509 38.632 208.197 41.384 210.117 44.904C212.101 48.36 213.093 52.296 213.093 56.712C213.093 57.544 213.029 58.408 212.901 59.304C212.837 60.136 212.677 61.096 212.421 62.184L173.445 62.28V52.872L206.565 52.776L201.477 56.712C201.349 53.96 200.837 51.656 199.941 49.8C199.109 47.944 197.861 46.536 196.197 45.576C194.597 44.552 192.613 44.04 190.245 44.04C187.749 44.04 185.573 44.616 183.717 45.768C181.861 46.856 180.421 48.424 179.397 50.472C178.437 52.456 177.957 54.824 177.957 57.576C177.957 60.392 178.469 62.856 179.493 64.968C180.581 67.016 182.117 68.616 184.101 69.768C186.085 70.856 188.389 71.4 191.013 71.4C193.381 71.4 195.525 71.016 197.445 70.248C199.365 69.416 201.029 68.2 202.437 66.6L209.829 73.992C207.589 76.616 204.837 78.6 201.573 79.944C198.373 81.288 194.885 81.96 191.109 81.96ZM236.807 82.056C234.183 82.056 231.591 81.704 229.031 81C226.535 80.296 224.231 79.336 222.119 78.12C220.007 76.84 218.183 75.304 216.647 73.512L224.135 65.928C225.735 67.72 227.591 69.064 229.703 69.96C231.815 70.856 234.151 71.304 236.711 71.304C238.759 71.304 240.295 71.016 241.319 70.44C242.407 69.864 242.951 69 242.951 67.848C242.951 66.568 242.375 65.576 241.223 64.872C240.135 64.168 238.695 63.592 236.903 63.144C235.111 62.632 233.223 62.088 231.239 61.512C229.319 60.872 227.463 60.072 225.671 59.112C223.879 58.088 222.407 56.712 221.255 54.984C220.167 53.192 219.623 50.888 219.623 48.072C219.623 45.128 220.327 42.568 221.735 40.392C223.207 38.216 225.287 36.52 227.975 35.304C230.663 34.088 233.831 33.48 237.479 33.48C241.319 33.48 244.775 34.152 247.847 35.496C250.983 36.84 253.575 38.856 255.623 41.544L248.039 49.128C246.631 47.4 245.031 46.152 243.239 45.384C241.511 44.616 239.623 44.232 237.575 44.232C235.719 44.232 234.279 44.52 233.255 45.096C232.295 45.672 231.815 46.472 231.815 47.496C231.815 48.648 232.359 49.544 233.447 50.184C234.599 50.824 236.071 51.4 237.863 51.912C239.655 52.36 241.511 52.904 243.431 53.544C245.415 54.12 247.271 54.952 248.999 56.04C250.791 57.128 252.231 58.568 253.319 60.36C254.471 62.152 255.047 64.456 255.047 67.272C255.047 71.816 253.415 75.432 250.151 78.12C246.887 80.744 242.439 82.056 236.807 82.056ZM282.919 81.96C278.695 81.96 274.887 80.904 271.495 78.792C268.103 76.68 265.447 73.8 263.527 70.152C261.607 66.504 260.647 62.408 260.647 57.864C260.647 53.256 261.607 49.128 263.527 45.48C265.447 41.832 268.103 38.952 271.495 36.84C274.887 34.728 278.695 33.672 282.919 33.672C286.247 33.672 289.223 34.344 291.847 35.688C294.471 37.032 296.551 38.92 298.087 41.352C299.687 43.72 300.551 46.408 300.679 49.416V66.12C300.551 69.192 299.687 71.912 298.087 74.28C296.551 76.648 294.471 78.536 291.847 79.944C289.223 81.288 286.247 81.96 282.919 81.96ZM285.223 70.344C288.743 70.344 291.591 69.192 293.767 66.888C295.943 64.52 297.031 61.48 297.031 57.768C297.031 55.336 296.519 53.192 295.495 51.336C294.535 49.416 293.159 47.944 291.367 46.92C289.639 45.832 287.591 45.288 285.223 45.288C282.919 45.288 280.871 45.832 279.079 46.92C277.351 47.944 275.975 49.416 274.951 51.336C273.991 53.192 273.511 55.336 273.511 57.768C273.511 60.264 273.991 62.472 274.951 64.392C275.975 66.248 277.351 67.72 279.079 68.808C280.871 69.832 282.919 70.344 285.223 70.344ZM296.359 81V68.52L298.375 57.192L296.359 46.056V34.632H308.839V81H296.359ZM345.692 81.96C342.364 81.96 339.356 81.288 336.668 79.944C333.98 78.536 331.836 76.648 330.236 74.28C328.636 71.912 327.772 69.192 327.644 66.12V49.704C327.772 46.632 328.636 43.912 330.236 41.544C331.9 39.112 334.044 37.192 336.668 35.784C339.356 34.376 342.364 33.672 345.692 33.672C349.98 33.672 353.82 34.728 357.212 36.84C360.604 38.952 363.26 41.832 365.18 45.48C367.164 49.128 368.156 53.256 368.156 57.864C368.156 62.408 367.164 66.504 365.18 70.152C363.26 73.8 360.604 76.68 357.212 78.792C353.82 80.904 349.98 81.96 345.692 81.96ZM343.484 70.344C345.788 70.344 347.836 69.832 349.628 68.808C351.42 67.72 352.796 66.248 353.756 64.392C354.78 62.472 355.292 60.264 355.292 57.768C355.292 55.336 354.78 53.192 353.756 51.336C352.796 49.416 351.42 47.944 349.628 46.92C347.836 45.832 345.788 45.288 343.484 45.288C341.244 45.288 339.228 45.832 337.436 46.92C335.644 47.944 334.236 49.416 333.212 51.336C332.252 53.192 331.772 55.336 331.772 57.768C331.772 60.264 332.252 62.472 333.212 64.392C334.236 66.248 335.612 67.72 337.34 68.808C339.132 69.832 341.18 70.344 343.484 70.344ZM319.964 100.392V34.632H332.54V46.824L330.428 58.056L332.444 69.288V100.392H319.964ZM398.578 81.96C393.714 81.96 389.394 80.936 385.618 78.888C381.842 76.776 378.834 73.896 376.594 70.248C374.418 66.6 373.33 62.44 373.33 57.768C373.33 53.16 374.386 49.064 376.498 45.48C378.674 41.832 381.618 38.952 385.33 36.84C389.042 34.664 393.17 33.576 397.714 33.576C402.194 33.576 406.13 34.6 409.522 36.648C412.978 38.632 415.666 41.384 417.586 44.904C419.57 48.36 420.562 52.296 420.562 56.712C420.562 57.544 420.498 58.408 420.37 59.304C420.306 60.136 420.146 61.096 419.89 62.184L380.914 62.28V52.872L414.034 52.776L408.946 56.712C408.818 53.96 408.306 51.656 407.41 49.8C406.578 47.944 405.33 46.536 403.666 45.576C402.066 44.552 400.082 44.04 397.714 44.04C395.218 44.04 393.042 44.616 391.186 45.768C389.33 46.856 387.89 48.424 386.866 50.472C385.906 52.456 385.426 54.824 385.426 57.576C385.426 60.392 385.938 62.856 386.962 64.968C388.05 67.016 389.586 68.616 391.57 69.768C393.554 70.856 395.858 71.4 398.482 71.4C400.85 71.4 402.994 71.016 404.914 70.248C406.834 69.416 408.498 68.2 409.906 66.6L417.298 73.992C415.058 76.616 412.306 78.6 409.042 79.944C405.842 81.288 402.354 81.96 398.578 81.96ZM447.731 101.544C442.803 101.544 438.451 100.648 434.675 98.856C430.899 97.128 427.891 94.664 425.651 91.464L433.619 83.496C435.411 85.608 437.395 87.208 439.571 88.296C441.811 89.448 444.499 90.024 447.635 90.024C451.539 90.024 454.611 89.032 456.851 87.048C459.155 85.064 460.307 82.312 460.307 78.792V67.176L462.419 57L460.403 46.824V34.632H472.883V78.6C472.883 83.208 471.795 87.208 469.619 90.6C467.507 94.056 464.563 96.744 460.787 98.664C457.011 100.584 452.659 101.544 447.731 101.544ZM447.155 79.752C442.995 79.752 439.251 78.76 435.923 76.776C432.595 74.728 429.971 71.944 428.051 68.424C426.195 64.904 425.267 60.968 425.267 56.616C425.267 52.264 426.195 48.36 428.051 44.904C429.971 41.448 432.595 38.728 435.923 36.744C439.251 34.696 442.995 33.672 447.155 33.672C450.611 33.672 453.651 34.344 456.275 35.688C458.963 37.032 461.075 38.888 462.611 41.256C464.147 43.56 464.979 46.28 465.107 49.416V64.008C464.979 67.08 464.115 69.832 462.515 72.264C460.979 74.632 458.867 76.488 456.179 77.832C453.555 79.112 450.547 79.752 447.155 79.752ZM449.651 68.328C451.955 68.328 453.939 67.848 455.603 66.888C457.331 65.864 458.675 64.488 459.635 62.76C460.595 60.968 461.075 58.952 461.075 56.712C461.075 54.408 460.595 52.392 459.635 50.664C458.675 48.936 457.331 47.592 455.603 46.632C453.939 45.608 451.955 45.096 449.651 45.096C447.347 45.096 445.331 45.608 443.603 46.632C441.875 47.592 440.531 48.968 439.571 50.76C438.611 52.488 438.131 54.472 438.131 56.712C438.131 58.888 438.611 60.872 439.571 62.664C440.531 64.392 441.875 65.768 443.603 66.792C445.331 67.816 447.347 68.328 449.651 68.328ZM503.325 81.96C499.101 81.96 495.293 80.904 491.901 78.792C488.509 76.68 485.853 73.8 483.933 70.152C482.013 66.504 481.053 62.408 481.053 57.864C481.053 53.256 482.013 49.128 483.933 45.48C485.853 41.832 488.509 38.952 491.901 36.84C495.293 34.728 499.101 33.672 503.325 33.672C506.653 33.672 509.629 34.344 512.253 35.688C514.877 37.032 516.957 38.92 518.493 41.352C520.093 43.72 520.957 46.408 521.085 49.416V66.12C520.957 69.192 520.093 71.912 518.493 74.28C516.957 76.648 514.877 78.536 512.253 79.944C509.629 81.288 506.653 81.96 503.325 81.96ZM505.629 70.344C509.149 70.344 511.997 69.192 514.173 66.888C516.349 64.52 517.437 61.48 517.437 57.768C517.437 55.336 516.925 53.192 515.901 51.336C514.941 49.416 513.565 47.944 511.773 46.92C510.045 45.832 507.997 45.288 505.629 45.288C503.325 45.288 501.277 45.832 499.485 46.92C497.757 47.944 496.381 49.416 495.357 51.336C494.397 53.192 493.917 55.336 493.917 57.768C493.917 60.264 494.397 62.472 495.357 64.392C496.381 66.248 497.757 67.72 499.485 68.808C501.277 69.832 503.325 70.344 505.629 70.344ZM516.765 81V68.52L518.781 57.192L516.765 46.056V34.632H529.245V81H516.765Z" fill="white"/>
<path fill-rule="evenodd" clip-rule="evenodd" d="M36.2318 96.0001C55.7907 96.0001 71.6464 80.1444 71.6464 60.5854C71.6464 41.0265 55.7907 25.1708 36.2318 25.1708C16.6728 25.1708 0.817139 41.0265 0.817139 60.5854C0.817139 80.1444 16.6728 96.0001 36.2318 96.0001ZM36.2318 77.8226C45.7516 77.8226 53.469 70.1053 53.469 60.5854C53.469 51.0656 45.7516 43.3482 36.2318 43.3482C26.7119 43.3482 18.9946 51.0656 18.9946 60.5854C18.9946 70.1053 26.7119 77.8226 36.2318 77.8226Z" fill="url(#paint0_linear_127_131)"/>
<path d="M71.6464 0C61.6245 0 53.5001 8.12439 53.5001 18.1463V51.2244C53.4897 51.2228 53.4794 51.2211 53.469 51.2195V60.5854C53.469 70.1052 45.7517 77.8226 36.2318 77.8226C26.712 77.8226 18.9946 70.1052 18.9946 60.5854C18.9946 51.0655 26.712 43.3482 36.2318 43.3482C36.4204 43.3482 36.6084 43.3512 36.7956 43.3572C36.3183 43.3306 35.8376 43.3171 35.3538 43.3171C21.1291 43.3171 9.59766 54.9795 9.59766 69.3659C9.59766 83.7522 21.4217 95.7073 35.6464 95.7073C59.0611 95.4146 69.5977 77.2683 71.0611 65.8537C71.1361 65.2683 71.3538 63.5122 71.3538 63.5122C71.3538 63.5122 71.6464 61.3259 71.6464 59.7073V0Z" fill="url(#paint1_linear_127_131)"/>
<defs>
<linearGradient id="paint0_linear_127_131" x1="54.0854" y1="42.7318" x2="20.4269" y2="35.122" gradientUnits="userSpaceOnUse">
<stop stop-color="#1724C9"/>
<stop offset="1" stop-color="#45B2FF"/>
</linearGradient>
<linearGradient id="paint1_linear_127_131" x1="21.305" y1="86.6341" x2="77.7928" y2="6.14634" gradientUnits="userSpaceOnUse">
<stop stop-color="#1724C9"/>
<stop offset="1" stop-color="#0092FF"/>
</linearGradient>
</defs>
</svg>
