<svg xmlns="http://www.w3.org/2000/svg" width="35" height="35" viewBox="0 0 35 35" fill="none">
  <path fill-rule="evenodd" clip-rule="evenodd" d="M17.8049 33C24.3245 33 29.6098 27.7148 29.6098 21.1951C29.6098 14.6755 24.3245 9.39023 17.8049 9.39023C11.2852 9.39023 6 14.6755 6 21.1951C6 27.7148 11.2852 33 17.8049 33ZM17.8049 26.9409C20.9782 26.9409 23.5506 24.3684 23.5506 21.1951C23.5506 18.0218 20.9782 15.4494 17.8049 15.4494C14.6316 15.4494 12.0591 18.0218 12.0591 21.1951C12.0591 24.3684 14.6316 26.9409 17.8049 26.9409Z" fill="url(#paint0_linear_122_39)"/>
  <path d="M29.6098 1C26.2691 1 23.561 3.70813 23.561 7.04878V18.0748C23.5575 18.0743 23.5541 18.0737 23.5506 18.0732V21.1951C23.5506 24.3684 20.9782 26.9409 17.8049 26.9409C14.6316 26.9409 12.0591 24.3684 12.0591 21.1951C12.0591 18.0218 14.6316 15.4494 17.8049 15.4494C17.8678 15.4494 17.9304 15.4504 17.9928 15.4524C17.8337 15.4435 17.6735 15.439 17.5122 15.439C12.7706 15.439 8.92683 19.3265 8.92683 24.122C8.92683 28.9174 12.8682 32.9024 17.6098 32.9024C25.4146 32.8049 28.9268 26.7561 29.4146 22.9512C29.4397 22.7561 29.5122 22.1707 29.5122 22.1707C29.5122 22.1707 29.6098 21.442 29.6098 20.9024V1Z" fill="url(#paint1_linear_122_39)"/>
  <defs>
    <linearGradient id="paint0_linear_122_39" x1="23.7561" y1="15.2439" x2="12.5366" y2="12.7073" gradientUnits="userSpaceOnUse">
      <stop stop-color="#1724C9"/>
      <stop offset="1" stop-color="#45B2FF"/>
    </linearGradient>
    <linearGradient id="paint1_linear_122_39" x1="12.8293" y1="29.878" x2="31.6585" y2="3.04878" gradientUnits="userSpaceOnUse">
      <stop stop-color="#1724C9"/>
      <stop offset="1" stop-color="#0092FF"/>
    </linearGradient>
  </defs>
</svg>