<svg width="116" height="34" viewBox="0 0 116 34" fill="none" xmlns="http://www.w3.org/2000/svg">
<path d="M34.97 23.7934V21.6154H38.192C39.008 21.6154 39.722 21.4474 40.334 21.1114C40.946 20.7634 41.42 20.2774 41.756 19.6534C42.104 19.0294 42.278 18.2914 42.278 17.4394C42.278 16.6114 42.104 15.8914 41.756 15.2794C41.408 14.6554 40.928 14.1754 40.316 13.8394C39.704 13.4914 38.996 13.3174 38.192 13.3174H34.916V11.1394H38.228C39.164 11.1394 40.028 11.2954 40.82 11.6074C41.624 11.9194 42.32 12.3634 42.908 12.9394C43.508 13.5034 43.97 14.1694 44.294 14.9374C44.63 15.7054 44.798 16.5454 44.798 17.4574C44.798 18.3694 44.63 19.2154 44.294 19.9954C43.97 20.7634 43.514 21.4354 42.926 22.0114C42.338 22.5754 41.642 23.0134 40.838 23.3254C40.046 23.6374 39.188 23.7934 38.264 23.7934H34.97ZM33.296 23.7934V11.1394H35.744V23.7934H33.296ZM50.6493 23.9734C49.7373 23.9734 48.9273 23.7814 48.2193 23.3974C47.5113 23.0014 46.9473 22.4614 46.5273 21.7774C46.1193 21.0934 45.9153 20.3134 45.9153 19.4374C45.9153 18.5734 46.1133 17.8054 46.5093 17.1334C46.9173 16.4494 47.4693 15.9094 48.1653 15.5134C48.8613 15.1054 49.6353 14.9014 50.4873 14.9014C51.3273 14.9014 52.0653 15.0934 52.7013 15.4774C53.3493 15.8494 53.8533 16.3654 54.2133 17.0254C54.5853 17.6734 54.7713 18.4114 54.7713 19.2394C54.7713 19.3954 54.7593 19.5574 54.7353 19.7254C54.7233 19.8814 54.6933 20.0614 54.6453 20.2654L47.3373 20.2834V18.5194L53.5473 18.5014L52.5933 19.2394C52.5693 18.7234 52.4733 18.2914 52.3053 17.9434C52.1493 17.5954 51.9153 17.3314 51.6033 17.1514C51.3033 16.9594 50.9313 16.8634 50.4873 16.8634C50.0193 16.8634 49.6113 16.9714 49.2633 17.1874C48.9153 17.3914 48.6453 17.6854 48.4533 18.0694C48.2733 18.4414 48.1833 18.8854 48.1833 19.4014C48.1833 19.9294 48.2793 20.3914 48.4713 20.7874C48.6753 21.1714 48.9633 21.4714 49.3353 21.6874C49.7073 21.8914 50.1393 21.9934 50.6313 21.9934C51.0753 21.9934 51.4773 21.9214 51.8373 21.7774C52.1973 21.6214 52.5093 21.3934 52.7733 21.0934L54.1593 22.4794C53.7393 22.9714 53.2233 23.3434 52.6113 23.5954C52.0113 23.8474 51.3573 23.9734 50.6493 23.9734ZM59.2175 23.9914C58.7255 23.9914 58.2395 23.9254 57.7595 23.7934C57.2915 23.6614 56.8595 23.4814 56.4635 23.2534C56.0675 23.0134 55.7255 22.7254 55.4375 22.3894L56.8415 20.9674C57.1415 21.3034 57.4895 21.5554 57.8855 21.7234C58.2815 21.8914 58.7195 21.9754 59.1995 21.9754C59.5835 21.9754 59.8715 21.9214 60.0635 21.8134C60.2675 21.7054 60.3695 21.5434 60.3695 21.3274C60.3695 21.0874 60.2615 20.9014 60.0455 20.7694C59.8415 20.6374 59.5715 20.5294 59.2355 20.4454C58.8995 20.3494 58.5455 20.2474 58.1735 20.1394C57.8135 20.0194 57.4655 19.8694 57.1295 19.6894C56.7935 19.4974 56.5175 19.2394 56.3015 18.9154C56.0975 18.5794 55.9955 18.1474 55.9955 17.6194C55.9955 17.0674 56.1275 16.5874 56.3915 16.1794C56.6675 15.7714 57.0575 15.4534 57.5615 15.2254C58.0655 14.9974 58.6595 14.8834 59.3435 14.8834C60.0635 14.8834 60.7115 15.0094 61.2875 15.2614C61.8755 15.5134 62.3615 15.8914 62.7455 16.3954L61.3235 17.8174C61.0595 17.4934 60.7595 17.2594 60.4235 17.1154C60.0995 16.9714 59.7455 16.8994 59.3615 16.8994C59.0135 16.8994 58.7435 16.9534 58.5515 17.0614C58.3715 17.1694 58.2815 17.3194 58.2815 17.5114C58.2815 17.7274 58.3835 17.8954 58.5875 18.0154C58.8035 18.1354 59.0795 18.2434 59.4155 18.3394C59.7515 18.4234 60.0995 18.5254 60.4595 18.6454C60.8315 18.7534 61.1795 18.9094 61.5035 19.1134C61.8395 19.3174 62.1095 19.5874 62.3135 19.9234C62.5295 20.2594 62.6375 20.6914 62.6375 21.2194C62.6375 22.0714 62.3315 22.7494 61.7195 23.2534C61.1075 23.7454 60.2735 23.9914 59.2175 23.9914ZM67.8636 23.9734C67.0716 23.9734 66.3576 23.7754 65.7216 23.3794C65.0856 22.9834 64.5876 22.4434 64.2276 21.7594C63.8676 21.0754 63.6876 20.3074 63.6876 19.4554C63.6876 18.5914 63.8676 17.8174 64.2276 17.1334C64.5876 16.4494 65.0856 15.9094 65.7216 15.5134C66.3576 15.1174 67.0716 14.9194 67.8636 14.9194C68.4876 14.9194 69.0456 15.0454 69.5376 15.2974C70.0296 15.5494 70.4196 15.9034 70.7076 16.3594C71.0076 16.8034 71.1696 17.3074 71.1936 17.8714V21.0034C71.1696 21.5794 71.0076 22.0894 70.7076 22.5334C70.4196 22.9774 70.0296 23.3314 69.5376 23.5954C69.0456 23.8474 68.4876 23.9734 67.8636 23.9734ZM68.2956 21.7954C68.9556 21.7954 69.4896 21.5794 69.8976 21.1474C70.3056 20.7034 70.5096 20.1334 70.5096 19.4374C70.5096 18.9814 70.4136 18.5794 70.2216 18.2314C70.0416 17.8714 69.7836 17.5954 69.4476 17.4034C69.1236 17.1994 68.7396 17.0974 68.2956 17.0974C67.8636 17.0974 67.4796 17.1994 67.1436 17.4034C66.8196 17.5954 66.5616 17.8714 66.3696 18.2314C66.1896 18.5794 66.0996 18.9814 66.0996 19.4374C66.0996 19.9054 66.1896 20.3194 66.3696 20.6794C66.5616 21.0274 66.8196 21.3034 67.1436 21.5074C67.4796 21.6994 67.8636 21.7954 68.2956 21.7954ZM70.3836 23.7934V21.4534L70.7616 19.3294L70.3836 17.2414V15.0994H72.7236V23.7934H70.3836ZM79.6336 23.9734C79.0096 23.9734 78.4456 23.8474 77.9416 23.5954C77.4376 23.3314 77.0356 22.9774 76.7356 22.5334C76.4356 22.0894 76.2736 21.5794 76.2496 21.0034V17.9254C76.2736 17.3494 76.4356 16.8394 76.7356 16.3954C77.0476 15.9394 77.4496 15.5794 77.9416 15.3154C78.4456 15.0514 79.0096 14.9194 79.6336 14.9194C80.4376 14.9194 81.1576 15.1174 81.7936 15.5134C82.4296 15.9094 82.9276 16.4494 83.2876 17.1334C83.6596 17.8174 83.8456 18.5914 83.8456 19.4554C83.8456 20.3074 83.6596 21.0754 83.2876 21.7594C82.9276 22.4434 82.4296 22.9834 81.7936 23.3794C81.1576 23.7754 80.4376 23.9734 79.6336 23.9734ZM79.2196 21.7954C79.6516 21.7954 80.0356 21.6994 80.3716 21.5074C80.7076 21.3034 80.9656 21.0274 81.1456 20.6794C81.3376 20.3194 81.4336 19.9054 81.4336 19.4374C81.4336 18.9814 81.3376 18.5794 81.1456 18.2314C80.9656 17.8714 80.7076 17.5954 80.3716 17.4034C80.0356 17.1994 79.6516 17.0974 79.2196 17.0974C78.7996 17.0974 78.4216 17.1994 78.0856 17.4034C77.7496 17.5954 77.4856 17.8714 77.2936 18.2314C77.1136 18.5794 77.0236 18.9814 77.0236 19.4374C77.0236 19.9054 77.1136 20.3194 77.2936 20.6794C77.4856 21.0274 77.7436 21.3034 78.0676 21.5074C78.4036 21.6994 78.7876 21.7954 79.2196 21.7954ZM74.8096 27.4294V15.0994H77.1676V17.3854L76.7716 19.4914L77.1496 21.5974V27.4294H74.8096ZM89.5497 23.9734C88.6377 23.9734 87.8277 23.7814 87.1197 23.3974C86.4117 23.0014 85.8477 22.4614 85.4277 21.7774C85.0197 21.0934 84.8157 20.3134 84.8157 19.4374C84.8157 18.5734 85.0137 17.8054 85.4097 17.1334C85.8177 16.4494 86.3697 15.9094 87.0657 15.5134C87.7617 15.1054 88.5357 14.9014 89.3877 14.9014C90.2277 14.9014 90.9657 15.0934 91.6017 15.4774C92.2497 15.8494 92.7537 16.3654 93.1137 17.0254C93.4857 17.6734 93.6717 18.4114 93.6717 19.2394C93.6717 19.3954 93.6597 19.5574 93.6357 19.7254C93.6237 19.8814 93.5937 20.0614 93.5457 20.2654L86.2377 20.2834V18.5194L92.4477 18.5014L91.4937 19.2394C91.4697 18.7234 91.3737 18.2914 91.2057 17.9434C91.0497 17.5954 90.8157 17.3314 90.5037 17.1514C90.2037 16.9594 89.8317 16.8634 89.3877 16.8634C88.9197 16.8634 88.5117 16.9714 88.1637 17.1874C87.8157 17.3914 87.5457 17.6854 87.3537 18.0694C87.1737 18.4414 87.0837 18.8854 87.0837 19.4014C87.0837 19.9294 87.1797 20.3914 87.3717 20.7874C87.5757 21.1714 87.8637 21.4714 88.2357 21.6874C88.6077 21.8914 89.0397 21.9934 89.5317 21.9934C89.9757 21.9934 90.3777 21.9214 90.7377 21.7774C91.0977 21.6214 91.4097 21.3934 91.6737 21.0934L93.0597 22.4794C92.6397 22.9714 92.1237 23.3434 91.5117 23.5954C90.9117 23.8474 90.2577 23.9734 89.5497 23.9734ZM98.7659 27.6454C97.8419 27.6454 97.0259 27.4774 96.3179 27.1414C95.6099 26.8174 95.0459 26.3554 94.6259 25.7554L96.1199 24.2614C96.4559 24.6574 96.8279 24.9574 97.2359 25.1614C97.6559 25.3774 98.1599 25.4854 98.7479 25.4854C99.4799 25.4854 100.056 25.2994 100.476 24.9274C100.908 24.5554 101.124 24.0394 101.124 23.3794V21.2014L101.52 19.2934L101.142 17.3854V15.0994H103.482V23.3434C103.482 24.2074 103.278 24.9574 102.87 25.5934C102.474 26.2414 101.922 26.7454 101.214 27.1054C100.506 27.4654 99.6899 27.6454 98.7659 27.6454ZM98.6579 23.5594C97.8779 23.5594 97.1759 23.3734 96.5519 23.0014C95.9279 22.6174 95.4359 22.0954 95.0759 21.4354C94.7279 20.7754 94.5539 20.0374 94.5539 19.2214C94.5539 18.4054 94.7279 17.6734 95.0759 17.0254C95.4359 16.3774 95.9279 15.8674 96.5519 15.4954C97.1759 15.1114 97.8779 14.9194 98.6579 14.9194C99.3059 14.9194 99.8759 15.0454 100.368 15.2974C100.872 15.5494 101.268 15.8974 101.556 16.3414C101.844 16.7734 102 17.2834 102.024 17.8714V20.6074C102 21.1834 101.838 21.6994 101.538 22.1554C101.25 22.5994 100.854 22.9474 100.35 23.1994C99.8579 23.4394 99.2939 23.5594 98.6579 23.5594ZM99.1259 21.4174C99.5579 21.4174 99.9299 21.3274 100.242 21.1474C100.566 20.9554 100.818 20.6974 100.998 20.3734C101.178 20.0374 101.268 19.6594 101.268 19.2394C101.268 18.8074 101.178 18.4294 100.998 18.1054C100.818 17.7814 100.566 17.5294 100.242 17.3494C99.9299 17.1574 99.5579 17.0614 99.1259 17.0614C98.6939 17.0614 98.3159 17.1574 97.9919 17.3494C97.6679 17.5294 97.4159 17.7874 97.2359 18.1234C97.0559 18.4474 96.9659 18.8194 96.9659 19.2394C96.9659 19.6474 97.0559 20.0194 97.2359 20.3554C97.4159 20.6794 97.6679 20.9374 97.9919 21.1294C98.3159 21.3214 98.6939 21.4174 99.1259 21.4174ZM109.19 23.9734C108.398 23.9734 107.684 23.7754 107.048 23.3794C106.412 22.9834 105.914 22.4434 105.554 21.7594C105.194 21.0754 105.014 20.3074 105.014 19.4554C105.014 18.5914 105.194 17.8174 105.554 17.1334C105.914 16.4494 106.412 15.9094 107.048 15.5134C107.684 15.1174 108.398 14.9194 109.19 14.9194C109.814 14.9194 110.372 15.0454 110.864 15.2974C111.356 15.5494 111.746 15.9034 112.034 16.3594C112.334 16.8034 112.496 17.3074 112.52 17.8714V21.0034C112.496 21.5794 112.334 22.0894 112.034 22.5334C111.746 22.9774 111.356 23.3314 110.864 23.5954C110.372 23.8474 109.814 23.9734 109.19 23.9734ZM109.622 21.7954C110.282 21.7954 110.816 21.5794 111.224 21.1474C111.632 20.7034 111.836 20.1334 111.836 19.4374C111.836 18.9814 111.74 18.5794 111.548 18.2314C111.368 17.8714 111.11 17.5954 110.774 17.4034C110.45 17.1994 110.066 17.0974 109.622 17.0974C109.19 17.0974 108.806 17.1994 108.47 17.4034C108.146 17.5954 107.888 17.8714 107.696 18.2314C107.516 18.5794 107.426 18.9814 107.426 19.4374C107.426 19.9054 107.516 20.3194 107.696 20.6794C107.888 21.0274 108.146 21.3034 108.47 21.5074C108.806 21.6994 109.19 21.7954 109.622 21.7954ZM111.71 23.7934V21.4534L112.088 19.3294L111.71 17.2414V15.0994H114.05V23.7934H111.71Z" fill="white"/>
<path fill-rule="evenodd" clip-rule="evenodd" d="M12 33.3223C18.6274 33.3223 24 27.9497 24 21.3223C24 14.6949 18.6274 9.32233 12 9.32233C5.37258 9.32233 0 14.6949 0 21.3223C0 27.9497 5.37258 33.3223 12 33.3223ZM12 27.163C15.2257 27.163 17.8407 24.5481 17.8407 21.3223C17.8407 18.0966 15.2257 15.4816 12 15.4816C8.77427 15.4816 6.15929 18.0966 6.15929 21.3223C6.15929 24.5481 8.77427 27.163 12 27.163Z" fill="url(#paint0_linear_106_172)"/>
<path d="M23.9999 0.793396C20.604 0.793396 17.8511 3.54629 17.8511 6.94216V18.1504C17.8476 18.1499 17.8441 18.1493 17.8406 18.1488V21.3223C17.8406 24.5481 15.2256 27.163 11.9999 27.163C8.77416 27.163 6.15918 24.5481 6.15918 21.3223C6.15918 18.0966 8.77416 15.4816 11.9999 15.4816C12.0638 15.4816 12.1275 15.4826 12.1909 15.4847C12.0292 15.4757 11.8663 15.4711 11.7024 15.4711C6.88243 15.4711 2.9751 19.4228 2.9751 24.2975C2.9751 29.1722 6.98161 33.2231 11.8015 33.2231C19.7354 33.124 23.3057 26.9752 23.8015 23.1074C23.827 22.9091 23.9007 22.3141 23.9007 22.3141C23.9007 22.3141 23.9999 21.5732 23.9999 21.0248V0.793396Z" fill="url(#paint1_linear_106_172)"/>
<defs>
<linearGradient id="paint0_linear_106_172" x1="18.0496" y1="15.2727" x2="6.64463" y2="12.6942" gradientUnits="userSpaceOnUse">
<stop stop-color="#1724C9"/>
<stop offset="1" stop-color="#45B2FF"/>
</linearGradient>
<linearGradient id="paint1_linear_106_172" x1="6.94204" y1="30.1488" x2="26.0825" y2="2.87604" gradientUnits="userSpaceOnUse">
<stop stop-color="#1724C9"/>
<stop offset="1" stop-color="#0092FF"/>
</linearGradient>
</defs>
</svg>
