<svg width="155" height="44" viewBox="0 0 155 44" fill="none" xmlns="http://www.w3.org/2000/svg">
<path d="M47.96 31.3719V28.4679H52.256C53.344 28.4679 54.296 28.2439 55.112 27.7959C55.928 27.3319 56.56 26.6839 57.008 25.8519C57.472 25.0199 57.704 24.0359 57.704 22.8999C57.704 21.7959 57.472 20.8359 57.008 20.0199C56.544 19.1879 55.904 18.5479 55.088 18.0999C54.272 17.6359 53.328 17.4039 52.256 17.4039H47.888V14.4999H52.304C53.552 14.4999 54.704 14.7079 55.76 15.1239C56.832 15.5399 57.76 16.1319 58.544 16.8999C59.344 17.6519 59.96 18.5399 60.392 19.5639C60.84 20.5879 61.064 21.7079 61.064 22.9239C61.064 24.1399 60.84 25.2679 60.392 26.3079C59.96 27.3319 59.352 28.2279 58.568 28.9959C57.784 29.7479 56.856 30.3319 55.784 30.7479C54.728 31.1639 53.584 31.3719 52.352 31.3719H47.96ZM45.728 31.3719V14.4999H48.992V31.3719H45.728ZM68.8657 31.6119C67.6497 31.6119 66.5697 31.3559 65.6257 30.8439C64.6817 30.3159 63.9297 29.5959 63.3697 28.6839C62.8257 27.7719 62.5537 26.7319 62.5537 25.5639C62.5537 24.4119 62.8177 23.3879 63.3457 22.4919C63.8897 21.5799 64.6257 20.8599 65.5537 20.3319C66.4817 19.7879 67.5137 19.5159 68.6497 19.5159C69.7697 19.5159 70.7537 19.7719 71.6017 20.2839C72.4657 20.7799 73.1377 21.4679 73.6177 22.3479C74.1137 23.2119 74.3617 24.1959 74.3617 25.2999C74.3617 25.5079 74.3457 25.7239 74.3137 25.9479C74.2977 26.1559 74.2577 26.3959 74.1937 26.6679L64.4497 26.6919V24.3399L72.7297 24.3159L71.4577 25.2999C71.4257 24.6119 71.2977 24.0359 71.0737 23.5719C70.8657 23.1079 70.5537 22.7559 70.1377 22.5159C69.7377 22.2599 69.2417 22.1319 68.6497 22.1319C68.0257 22.1319 67.4817 22.2759 67.0177 22.5639C66.5537 22.8359 66.1937 23.2279 65.9377 23.7399C65.6977 24.2359 65.5777 24.8279 65.5777 25.5159C65.5777 26.2199 65.7057 26.8359 65.9617 27.3639C66.2337 27.8759 66.6177 28.2759 67.1137 28.5639C67.6097 28.8359 68.1857 28.9719 68.8417 28.9719C69.4337 28.9719 69.9697 28.8759 70.4497 28.6839C70.9297 28.4759 71.3457 28.1719 71.6977 27.7719L73.5457 29.6199C72.9857 30.2759 72.2977 30.7719 71.4817 31.1079C70.6817 31.4439 69.8097 31.6119 68.8657 31.6119ZM80.2901 31.6359C79.6341 31.6359 78.9861 31.5479 78.3461 31.3719C77.7221 31.1959 77.1461 30.9559 76.6181 30.6519C76.0901 30.3319 75.6341 29.9479 75.2501 29.4999L77.1221 27.6039C77.5221 28.0519 77.9861 28.3879 78.5141 28.6119C79.0421 28.8359 79.6261 28.9479 80.2661 28.9479C80.7781 28.9479 81.1621 28.8759 81.4181 28.7319C81.6901 28.5879 81.8261 28.3719 81.8261 28.0839C81.8261 27.7639 81.6821 27.5159 81.3941 27.3399C81.1221 27.1639 80.7621 27.0199 80.3141 26.9079C79.8661 26.7799 79.3941 26.6439 78.8981 26.4999C78.4181 26.3399 77.9541 26.1399 77.5061 25.8999C77.0581 25.6439 76.6901 25.2999 76.4021 24.8679C76.1301 24.4199 75.9941 23.8439 75.9941 23.1399C75.9941 22.4039 76.1701 21.7639 76.5221 21.2199C76.8901 20.6759 77.4101 20.2519 78.0821 19.9479C78.7541 19.6439 79.5461 19.4919 80.4581 19.4919C81.4181 19.4919 82.2821 19.6599 83.0501 19.9959C83.8341 20.3319 84.4821 20.8359 84.9941 21.5079L83.0981 23.4039C82.7461 22.9719 82.3461 22.6599 81.8981 22.4679C81.4661 22.2759 80.9941 22.1799 80.4821 22.1799C80.0181 22.1799 79.6581 22.2519 79.4021 22.3959C79.1621 22.5399 79.0421 22.7399 79.0421 22.9959C79.0421 23.2839 79.1781 23.5079 79.4501 23.6679C79.7381 23.8279 80.1061 23.9719 80.5541 24.0999C81.0021 24.2119 81.4661 24.3479 81.9461 24.5079C82.4421 24.6519 82.9061 24.8599 83.3381 25.1319C83.7861 25.4039 84.1461 25.7639 84.4181 26.2119C84.7061 26.6599 84.8501 27.2359 84.8501 27.9399C84.8501 29.0759 84.4421 29.9799 83.6261 30.6519C82.8101 31.3079 81.6981 31.6359 80.2901 31.6359ZM91.8181 31.6119C90.7621 31.6119 89.8101 31.3479 88.9621 30.8199C88.1141 30.2919 87.4501 29.5719 86.9701 28.6599C86.4901 27.7479 86.2501 26.7239 86.2501 25.5879C86.2501 24.4359 86.4901 23.4039 86.9701 22.4919C87.4501 21.5799 88.1141 20.8599 88.9621 20.3319C89.8101 19.8039 90.7621 19.5399 91.8181 19.5399C92.6501 19.5399 93.3941 19.7079 94.0501 20.0439C94.7061 20.3799 95.2261 20.8519 95.6101 21.4599C96.0101 22.0519 96.2261 22.7239 96.2581 23.4759V27.6519C96.2261 28.4199 96.0101 29.0999 95.6101 29.6919C95.2261 30.2839 94.7061 30.7559 94.0501 31.1079C93.3941 31.4439 92.6501 31.6119 91.8181 31.6119ZM92.3941 28.7079C93.2741 28.7079 93.9861 28.4199 94.5301 27.8439C95.0741 27.2519 95.3461 26.4919 95.3461 25.5639C95.3461 24.9559 95.2181 24.4199 94.9621 23.9559C94.7221 23.4759 94.3781 23.1079 93.9301 22.8519C93.4981 22.5799 92.9861 22.4439 92.3941 22.4439C91.8181 22.4439 91.3061 22.5799 90.8581 22.8519C90.4261 23.1079 90.0821 23.4759 89.8261 23.9559C89.5861 24.4199 89.4661 24.9559 89.4661 25.5639C89.4661 26.1879 89.5861 26.7399 89.8261 27.2199C90.0821 27.6839 90.4261 28.0519 90.8581 28.3239C91.3061 28.5799 91.8181 28.7079 92.3941 28.7079ZM95.1781 31.3719V28.2519L95.6821 25.4199L95.1781 22.6359V19.7799H98.2981V31.3719H95.1781ZM107.512 31.6119C106.68 31.6119 105.928 31.4439 105.256 31.1079C104.584 30.7559 104.048 30.2839 103.648 29.6919C103.248 29.0999 103.032 28.4199 103 27.6519V23.5479C103.032 22.7799 103.248 22.0999 103.648 21.5079C104.064 20.8999 104.6 20.4199 105.256 20.0679C105.928 19.7159 106.68 19.5399 107.512 19.5399C108.584 19.5399 109.544 19.8039 110.392 20.3319C111.24 20.8599 111.904 21.5799 112.384 22.4919C112.88 23.4039 113.128 24.4359 113.128 25.5879C113.128 26.7239 112.88 27.7479 112.384 28.6599C111.904 29.5719 111.24 30.2919 110.392 30.8199C109.544 31.3479 108.584 31.6119 107.512 31.6119ZM106.96 28.7079C107.536 28.7079 108.048 28.5799 108.496 28.3239C108.944 28.0519 109.288 27.6839 109.528 27.2199C109.784 26.7399 109.912 26.1879 109.912 25.5639C109.912 24.9559 109.784 24.4199 109.528 23.9559C109.288 23.4759 108.944 23.1079 108.496 22.8519C108.048 22.5799 107.536 22.4439 106.96 22.4439C106.4 22.4439 105.896 22.5799 105.448 22.8519C105 23.1079 104.648 23.4759 104.392 23.9559C104.152 24.4199 104.032 24.9559 104.032 25.5639C104.032 26.1879 104.152 26.7399 104.392 27.2199C104.648 27.6839 104.992 28.0519 105.424 28.3239C105.872 28.5799 106.384 28.7079 106.96 28.7079ZM101.08 36.2199V19.7799H104.224V22.8279L103.696 25.6359L104.2 28.4439V36.2199H101.08ZM120.733 31.6119C119.517 31.6119 118.437 31.3559 117.493 30.8439C116.549 30.3159 115.797 29.5959 115.237 28.6839C114.693 27.7719 114.421 26.7319 114.421 25.5639C114.421 24.4119 114.685 23.3879 115.213 22.4919C115.757 21.5799 116.493 20.8599 117.421 20.3319C118.349 19.7879 119.381 19.5159 120.517 19.5159C121.637 19.5159 122.621 19.7719 123.469 20.2839C124.333 20.7799 125.005 21.4679 125.485 22.3479C125.981 23.2119 126.229 24.1959 126.229 25.2999C126.229 25.5079 126.213 25.7239 126.181 25.9479C126.165 26.1559 126.125 26.3959 126.061 26.6679L116.317 26.6919V24.3399L124.597 24.3159L123.325 25.2999C123.293 24.6119 123.165 24.0359 122.941 23.5719C122.733 23.1079 122.421 22.7559 122.005 22.5159C121.605 22.2599 121.109 22.1319 120.517 22.1319C119.893 22.1319 119.349 22.2759 118.885 22.5639C118.421 22.8359 118.061 23.2279 117.805 23.7399C117.565 24.2359 117.445 24.8279 117.445 25.5159C117.445 26.2199 117.573 26.8359 117.829 27.3639C118.101 27.8759 118.485 28.2759 118.981 28.5639C119.477 28.8359 120.053 28.9719 120.709 28.9719C121.301 28.9719 121.837 28.8759 122.317 28.6839C122.797 28.4759 123.213 28.1719 123.565 27.7719L125.413 29.6199C124.853 30.2759 124.165 30.7719 123.349 31.1079C122.549 31.4439 121.677 31.6119 120.733 31.6119ZM133.021 36.5079C131.789 36.5079 130.701 36.2839 129.757 35.8359C128.813 35.4039 128.061 34.7879 127.501 33.9879L129.493 31.9959C129.941 32.5239 130.437 32.9239 130.981 33.1959C131.541 33.4839 132.213 33.6279 132.997 33.6279C133.973 33.6279 134.741 33.3799 135.301 32.8839C135.877 32.3879 136.165 31.6999 136.165 30.8199V27.9159L136.693 25.3719L136.189 22.8279V19.7799H139.309V30.7719C139.309 31.9239 139.037 32.9239 138.493 33.7719C137.965 34.6359 137.229 35.3079 136.285 35.7879C135.341 36.2679 134.253 36.5079 133.021 36.5079ZM132.877 31.0599C131.837 31.0599 130.901 30.8119 130.069 30.3159C129.237 29.8039 128.581 29.1079 128.101 28.2279C127.637 27.3479 127.405 26.3639 127.405 25.2759C127.405 24.1879 127.637 23.2119 128.101 22.3479C128.581 21.4839 129.237 20.8039 130.069 20.3079C130.901 19.7959 131.837 19.5399 132.877 19.5399C133.741 19.5399 134.501 19.7079 135.157 20.0439C135.829 20.3799 136.357 20.8439 136.741 21.4359C137.125 22.0119 137.333 22.6919 137.365 23.4759V27.1239C137.333 27.8919 137.117 28.5799 136.717 29.1879C136.333 29.7799 135.805 30.2439 135.133 30.5799C134.477 30.8999 133.725 31.0599 132.877 31.0599ZM133.501 28.2039C134.077 28.2039 134.573 28.0839 134.989 27.8439C135.421 27.5879 135.757 27.2439 135.997 26.8119C136.237 26.3639 136.357 25.8599 136.357 25.2999C136.357 24.7239 136.237 24.2199 135.997 23.7879C135.757 23.3559 135.421 23.0199 134.989 22.7799C134.573 22.5239 134.077 22.3959 133.501 22.3959C132.925 22.3959 132.421 22.5239 131.989 22.7799C131.557 23.0199 131.221 23.3639 130.981 23.8119C130.741 24.2439 130.621 24.7399 130.621 25.2999C130.621 25.8439 130.741 26.3399 130.981 26.7879C131.221 27.2199 131.557 27.5639 131.989 27.8199C132.421 28.0759 132.925 28.2039 133.501 28.2039ZM146.92 31.6119C145.864 31.6119 144.912 31.3479 144.064 30.8199C143.216 30.2919 142.552 29.5719 142.072 28.6599C141.592 27.7479 141.352 26.7239 141.352 25.5879C141.352 24.4359 141.592 23.4039 142.072 22.4919C142.552 21.5799 143.216 20.8599 144.064 20.3319C144.912 19.8039 145.864 19.5399 146.92 19.5399C147.752 19.5399 148.496 19.7079 149.152 20.0439C149.808 20.3799 150.328 20.8519 150.712 21.4599C151.112 22.0519 151.328 22.7239 151.36 23.4759V27.6519C151.328 28.4199 151.112 29.0999 150.712 29.6919C150.328 30.2839 149.808 30.7559 149.152 31.1079C148.496 31.4439 147.752 31.6119 146.92 31.6119ZM147.496 28.7079C148.376 28.7079 149.088 28.4199 149.632 27.8439C150.176 27.2519 150.448 26.4919 150.448 25.5639C150.448 24.9559 150.32 24.4199 150.064 23.9559C149.824 23.4759 149.48 23.1079 149.032 22.8519C148.6 22.5799 148.088 22.4439 147.496 22.4439C146.92 22.4439 146.408 22.5799 145.96 22.8519C145.528 23.1079 145.184 23.4759 144.928 23.9559C144.688 24.4199 144.568 24.9559 144.568 25.5639C144.568 26.1879 144.688 26.7399 144.928 27.2199C145.184 27.6839 145.528 28.0519 145.96 28.3239C146.408 28.5799 146.92 28.7079 147.496 28.7079ZM150.28 31.3719V28.2519L150.784 25.4199L150.28 22.6359V19.7799H153.4V31.3719H150.28Z" fill="white"/>
<path fill-rule="evenodd" clip-rule="evenodd" d="M16 43.7438C24.8366 43.7438 32 36.5803 32 27.7438C32 18.9072 24.8366 11.7438 16 11.7438C7.16344 11.7438 0 18.9072 0 27.7438C0 36.5803 7.16344 43.7438 16 43.7438ZM16 35.5314C20.301 35.5314 23.7876 32.0448 23.7876 27.7438C23.7876 23.4428 20.301 19.9562 16 19.9562C11.699 19.9562 8.21239 23.4428 8.21239 27.7438C8.21239 32.0448 11.699 35.5314 16 35.5314Z" fill="url(#paint0_linear_106_177)"/>
<path d="M32.0001 0.371887C27.4723 0.371887 23.8018 4.04241 23.8018 8.57023V23.5146C23.7971 23.5138 23.7924 23.5131 23.7877 23.5124V27.7438C23.7877 32.0448 20.3011 35.5314 16.0001 35.5314C11.6991 35.5314 8.21249 32.0448 8.21249 27.7438C8.21249 23.4428 11.6991 19.9562 16.0001 19.9562C16.0853 19.9562 16.1703 19.9575 16.2548 19.9603C16.0392 19.9482 15.822 19.9421 15.6034 19.9421C9.17682 19.9421 3.96704 25.2111 3.96704 31.7107C3.96704 38.2103 9.30905 43.6116 15.7356 43.6116C26.3141 43.4793 31.0745 35.281 31.7356 30.124C31.7695 29.8595 31.8679 29.0661 31.8679 29.0661C31.8679 29.0661 32.0001 28.0783 32.0001 27.3471V0.371887Z" fill="url(#paint1_linear_106_177)"/>
<defs>
<linearGradient id="paint0_linear_106_177" x1="24.0661" y1="19.6777" x2="8.8595" y2="16.2396" gradientUnits="userSpaceOnUse">
<stop stop-color="#1724C9"/>
<stop offset="1" stop-color="#45B2FF"/>
</linearGradient>
<linearGradient id="paint1_linear_106_177" x1="9.2563" y1="39.5124" x2="34.777" y2="3.14875" gradientUnits="userSpaceOnUse">
<stop stop-color="#1724C9"/>
<stop offset="1" stop-color="#0092FF"/>
</linearGradient>
</defs>
</svg>
