<svg width="231" height="66" viewBox="0 0 231 66" fill="none" xmlns="http://www.w3.org/2000/svg">
<path d="M69.94 46.5289V42.1729H76.384C78.016 42.1729 79.444 41.8369 80.668 41.1649C81.892 40.4689 82.84 39.4969 83.512 38.2489C84.208 37.0009 84.556 35.5249 84.556 33.8209C84.556 32.1649 84.208 30.7249 83.512 29.5009C82.816 28.2529 81.856 27.2929 80.632 26.6209C79.408 25.9249 77.992 25.5769 76.384 25.5769H69.832V21.2209H76.456C78.328 21.2209 80.056 21.5329 81.64 22.1569C83.248 22.7809 84.64 23.6689 85.816 24.8209C87.016 25.9489 87.94 27.2809 88.588 28.8169C89.26 30.3529 89.596 32.0329 89.596 33.8569C89.596 35.6809 89.26 37.3729 88.588 38.9329C87.94 40.4689 87.028 41.8129 85.852 42.9649C84.676 44.0929 83.284 44.9689 81.676 45.5929C80.092 46.2169 78.376 46.5289 76.528 46.5289H69.94ZM66.592 46.5289V21.2209H71.488V46.5289H66.592ZM101.299 46.8889C99.4745 46.8889 97.8545 46.5049 96.4385 45.7369C95.0225 44.9449 93.8945 43.8649 93.0545 42.4969C92.2385 41.1289 91.8305 39.5689 91.8305 37.8169C91.8305 36.0889 92.2265 34.5529 93.0185 33.2089C93.8345 31.8409 94.9385 30.7609 96.3305 29.9689C97.7225 29.1529 99.2705 28.7449 100.975 28.7449C102.655 28.7449 104.131 29.1289 105.403 29.8969C106.699 30.6409 107.707 31.6729 108.427 32.9929C109.171 34.2889 109.543 35.7649 109.543 37.4209C109.543 37.7329 109.519 38.0569 109.471 38.3929C109.447 38.7049 109.387 39.0649 109.291 39.4729L94.6745 39.5089V35.9809L107.095 35.9449L105.187 37.4209C105.139 36.3889 104.947 35.5249 104.611 34.8289C104.299 34.1329 103.831 33.6049 103.207 33.2449C102.607 32.8609 101.863 32.6689 100.975 32.6689C100.039 32.6689 99.2225 32.8849 98.5265 33.3169C97.8305 33.7249 97.2905 34.3129 96.9065 35.0809C96.5465 35.8249 96.3665 36.7129 96.3665 37.7449C96.3665 38.8009 96.5585 39.7249 96.9425 40.5169C97.3505 41.2849 97.9265 41.8849 98.6705 42.3169C99.4145 42.7249 100.279 42.9289 101.263 42.9289C102.151 42.9289 102.955 42.7849 103.675 42.4969C104.395 42.1849 105.019 41.7289 105.547 41.1289L108.319 43.9009C107.479 44.8849 106.447 45.6289 105.223 46.1329C104.023 46.6369 102.715 46.8889 101.299 46.8889ZM118.435 46.9249C117.451 46.9249 116.479 46.7929 115.519 46.5289C114.583 46.2649 113.719 45.9049 112.927 45.4489C112.135 44.9689 111.451 44.3929 110.875 43.7209L113.683 40.8769C114.283 41.5489 114.979 42.0529 115.771 42.3889C116.563 42.7249 117.439 42.8929 118.399 42.8929C119.167 42.8929 119.743 42.7849 120.127 42.5689C120.535 42.3529 120.739 42.0289 120.739 41.5969C120.739 41.1169 120.523 40.7449 120.091 40.4809C119.683 40.2169 119.143 40.0009 118.471 39.8329C117.799 39.6409 117.091 39.4369 116.347 39.2209C115.627 38.9809 114.931 38.6809 114.259 38.3209C113.587 37.9369 113.035 37.4209 112.603 36.7729C112.195 36.1009 111.991 35.2369 111.991 34.1809C111.991 33.0769 112.255 32.1169 112.783 31.3009C113.335 30.4849 114.115 29.8489 115.123 29.3929C116.131 28.9369 117.319 28.7089 118.687 28.7089C120.127 28.7089 121.423 28.9609 122.575 29.4649C123.751 29.9689 124.723 30.7249 125.491 31.7329L122.647 34.5769C122.119 33.9289 121.519 33.4609 120.847 33.1729C120.199 32.8849 119.491 32.7409 118.723 32.7409C118.027 32.7409 117.487 32.8489 117.103 33.0649C116.743 33.2809 116.563 33.5809 116.563 33.9649C116.563 34.3969 116.767 34.7329 117.175 34.9729C117.607 35.2129 118.159 35.4289 118.831 35.6209C119.503 35.7889 120.199 35.9929 120.919 36.2329C121.663 36.4489 122.359 36.7609 123.007 37.1689C123.679 37.5769 124.219 38.1169 124.627 38.7889C125.059 39.4609 125.275 40.3249 125.275 41.3809C125.275 43.0849 124.663 44.4409 123.439 45.4489C122.215 46.4329 120.547 46.9249 118.435 46.9249ZM135.727 46.8889C134.143 46.8889 132.715 46.4929 131.443 45.7009C130.171 44.9089 129.175 43.8289 128.455 42.4609C127.735 41.0929 127.375 39.5569 127.375 37.8529C127.375 36.1249 127.735 34.5769 128.455 33.2089C129.175 31.8409 130.171 30.7609 131.443 29.9689C132.715 29.1769 134.143 28.7809 135.727 28.7809C136.975 28.7809 138.091 29.0329 139.075 29.5369C140.059 30.0409 140.839 30.7489 141.415 31.6609C142.015 32.5489 142.339 33.5569 142.387 34.6849V40.9489C142.339 42.1009 142.015 43.1209 141.415 44.0089C140.839 44.8969 140.059 45.6049 139.075 46.1329C138.091 46.6369 136.975 46.8889 135.727 46.8889ZM136.591 42.5329C137.911 42.5329 138.979 42.1009 139.795 41.2369C140.611 40.3489 141.019 39.2089 141.019 37.8169C141.019 36.9049 140.827 36.1009 140.443 35.4049C140.083 34.6849 139.567 34.1329 138.895 33.7489C138.247 33.3409 137.479 33.1369 136.591 33.1369C135.727 33.1369 134.959 33.3409 134.287 33.7489C133.639 34.1329 133.123 34.6849 132.739 35.4049C132.379 36.1009 132.199 36.9049 132.199 37.8169C132.199 38.7529 132.379 39.5809 132.739 40.3009C133.123 40.9969 133.639 41.5489 134.287 41.9569C134.959 42.3409 135.727 42.5329 136.591 42.5329ZM140.767 46.5289V41.8489L141.523 37.6009L140.767 33.4249V29.1409H145.447V46.5289H140.767ZM159.267 46.8889C158.019 46.8889 156.891 46.6369 155.883 46.1329C154.875 45.6049 154.071 44.8969 153.471 44.0089C152.871 43.1209 152.547 42.1009 152.499 40.9489V34.7929C152.547 33.6409 152.871 32.6209 153.471 31.7329C154.095 30.8209 154.899 30.1009 155.883 29.5729C156.891 29.0449 158.019 28.7809 159.267 28.7809C160.875 28.7809 162.315 29.1769 163.587 29.9689C164.859 30.7609 165.855 31.8409 166.575 33.2089C167.319 34.5769 167.691 36.1249 167.691 37.8529C167.691 39.5569 167.319 41.0929 166.575 42.4609C165.855 43.8289 164.859 44.9089 163.587 45.7009C162.315 46.4929 160.875 46.8889 159.267 46.8889ZM158.439 42.5329C159.303 42.5329 160.071 42.3409 160.743 41.9569C161.415 41.5489 161.931 40.9969 162.291 40.3009C162.675 39.5809 162.867 38.7529 162.867 37.8169C162.867 36.9049 162.675 36.1009 162.291 35.4049C161.931 34.6849 161.415 34.1329 160.743 33.7489C160.071 33.3409 159.303 33.1369 158.439 33.1369C157.599 33.1369 156.843 33.3409 156.171 33.7489C155.499 34.1329 154.971 34.6849 154.587 35.4049C154.227 36.1009 154.047 36.9049 154.047 37.8169C154.047 38.7529 154.227 39.5809 154.587 40.3009C154.971 40.9969 155.487 41.5489 156.135 41.9569C156.807 42.3409 157.575 42.5329 158.439 42.5329ZM149.619 53.8009V29.1409H154.335V33.7129L153.543 37.9249L154.299 42.1369V53.8009H149.619ZM179.099 46.8889C177.275 46.8889 175.655 46.5049 174.239 45.7369C172.823 44.9449 171.695 43.8649 170.855 42.4969C170.039 41.1289 169.631 39.5689 169.631 37.8169C169.631 36.0889 170.027 34.5529 170.819 33.2089C171.635 31.8409 172.739 30.7609 174.131 29.9689C175.523 29.1529 177.071 28.7449 178.775 28.7449C180.455 28.7449 181.931 29.1289 183.203 29.8969C184.499 30.6409 185.507 31.6729 186.227 32.9929C186.971 34.2889 187.343 35.7649 187.343 37.4209C187.343 37.7329 187.319 38.0569 187.271 38.3929C187.247 38.7049 187.187 39.0649 187.091 39.4729L172.475 39.5089V35.9809L184.895 35.9449L182.987 37.4209C182.939 36.3889 182.747 35.5249 182.411 34.8289C182.099 34.1329 181.631 33.6049 181.007 33.2449C180.407 32.8609 179.663 32.6689 178.775 32.6689C177.839 32.6689 177.023 32.8849 176.327 33.3169C175.631 33.7249 175.091 34.3129 174.707 35.0809C174.347 35.8249 174.167 36.7129 174.167 37.7449C174.167 38.8009 174.359 39.7249 174.743 40.5169C175.151 41.2849 175.727 41.8849 176.471 42.3169C177.215 42.7249 178.079 42.9289 179.063 42.9289C179.951 42.9289 180.755 42.7849 181.475 42.4969C182.195 42.1849 182.819 41.7289 183.347 41.1289L186.119 43.9009C185.279 44.8849 184.247 45.6289 183.023 46.1329C181.823 46.6369 180.515 46.8889 179.099 46.8889ZM197.532 54.2329C195.684 54.2329 194.052 53.8969 192.636 53.2249C191.22 52.5769 190.092 51.6529 189.252 50.4529L192.24 47.4649C192.912 48.2569 193.656 48.8569 194.472 49.2649C195.312 49.6969 196.32 49.9129 197.496 49.9129C198.96 49.9129 200.112 49.5409 200.952 48.7969C201.816 48.0529 202.248 47.0209 202.248 45.7009V41.3449L203.04 37.5289L202.284 33.7129V29.1409H206.964V45.6289C206.964 47.3569 206.556 48.8569 205.74 50.1289C204.948 51.4249 203.844 52.4329 202.428 53.1529C201.012 53.8729 199.38 54.2329 197.532 54.2329ZM197.316 46.0609C195.756 46.0609 194.352 45.6889 193.104 44.9449C191.856 44.1769 190.872 43.1329 190.152 41.8129C189.456 40.4929 189.108 39.0169 189.108 37.3849C189.108 35.7529 189.456 34.2889 190.152 32.9929C190.872 31.6969 191.856 30.6769 193.104 29.9329C194.352 29.1649 195.756 28.7809 197.316 28.7809C198.612 28.7809 199.752 29.0329 200.736 29.5369C201.744 30.0409 202.536 30.7369 203.112 31.6249C203.688 32.4889 204 33.5089 204.048 34.6849V40.1569C204 41.3089 203.676 42.3409 203.076 43.2529C202.5 44.1409 201.708 44.8369 200.7 45.3409C199.716 45.8209 198.588 46.0609 197.316 46.0609ZM198.252 41.7769C199.116 41.7769 199.86 41.5969 200.484 41.2369C201.132 40.8529 201.636 40.3369 201.996 39.6889C202.356 39.0169 202.536 38.2609 202.536 37.4209C202.536 36.5569 202.356 35.8009 201.996 35.1529C201.636 34.5049 201.132 34.0009 200.484 33.6409C199.86 33.2569 199.116 33.0649 198.252 33.0649C197.388 33.0649 196.632 33.2569 195.984 33.6409C195.336 34.0009 194.832 34.5169 194.472 35.1889C194.112 35.8369 193.932 36.5809 193.932 37.4209C193.932 38.2369 194.112 38.9809 194.472 39.6529C194.832 40.3009 195.336 40.8169 195.984 41.2009C196.632 41.5849 197.388 41.7769 198.252 41.7769ZM218.38 46.8889C216.796 46.8889 215.368 46.4929 214.096 45.7009C212.824 44.9089 211.828 43.8289 211.108 42.4609C210.388 41.0929 210.028 39.5569 210.028 37.8529C210.028 36.1249 210.388 34.5769 211.108 33.2089C211.828 31.8409 212.824 30.7609 214.096 29.9689C215.368 29.1769 216.796 28.7809 218.38 28.7809C219.628 28.7809 220.744 29.0329 221.728 29.5369C222.712 30.0409 223.492 30.7489 224.068 31.6609C224.668 32.5489 224.992 33.5569 225.04 34.6849V40.9489C224.992 42.1009 224.668 43.1209 224.068 44.0089C223.492 44.8969 222.712 45.6049 221.728 46.1329C220.744 46.6369 219.628 46.8889 218.38 46.8889ZM219.244 42.5329C220.564 42.5329 221.632 42.1009 222.448 41.2369C223.264 40.3489 223.672 39.2089 223.672 37.8169C223.672 36.9049 223.48 36.1009 223.096 35.4049C222.736 34.6849 222.22 34.1329 221.548 33.7489C220.9 33.3409 220.132 33.1369 219.244 33.1369C218.38 33.1369 217.612 33.3409 216.94 33.7489C216.292 34.1329 215.776 34.6849 215.392 35.4049C215.032 36.1009 214.852 36.9049 214.852 37.8169C214.852 38.7529 215.032 39.5809 215.392 40.3009C215.776 40.9969 216.292 41.5489 216.94 41.9569C217.612 42.3409 218.38 42.5329 219.244 42.5329ZM223.42 46.5289V41.8489L224.176 37.6009L223.42 33.4249V29.1409H228.1V46.5289H223.42Z" fill="#111827"/>
<path fill-rule="evenodd" clip-rule="evenodd" d="M24 65.5868C37.2548 65.5868 48 54.8416 48 41.5868C48 28.332 37.2548 17.5868 24 17.5868C10.7452 17.5868 0 28.332 0 41.5868C0 54.8416 10.7452 65.5868 24 65.5868ZM24 53.2682C30.4515 53.2682 35.6814 48.0383 35.6814 41.5868C35.6814 35.1353 30.4515 29.9054 24 29.9054C17.5485 29.9054 12.3186 35.1353 12.3186 41.5868C12.3186 48.0383 17.5485 53.2682 24 53.2682Z" fill="url(#paint0_linear_106_110)"/>
<path d="M48 0.528931C41.2083 0.528931 35.7025 6.03472 35.7025 12.8265V35.243C35.6955 35.2419 35.6884 35.2408 35.6814 35.2397V41.5868C35.6814 48.0382 30.4515 53.2682 24 53.2682C17.5485 53.2682 12.3186 48.0382 12.3186 41.5868C12.3186 35.1353 17.5485 29.9054 24 29.9054C24.1278 29.9054 24.2552 29.9074 24.3821 29.9115C24.0586 29.8934 23.7328 29.8843 23.405 29.8843C13.7651 29.8843 5.95041 37.7878 5.95041 47.5372C5.95041 57.2866 13.9634 65.3884 23.6033 65.3884C39.4711 65.1901 46.6116 52.8926 47.6033 45.157C47.6542 44.7603 47.8016 43.5703 47.8016 43.5703C47.8016 43.5703 48 42.0886 48 40.9917V0.528931Z" fill="url(#paint1_linear_106_110)"/>
<defs>
<linearGradient id="paint0_linear_106_110" x1="36.0992" y1="29.4876" x2="13.2893" y2="24.3306" gradientUnits="userSpaceOnUse">
<stop stop-color="#1724C9"/>
<stop offset="1" stop-color="#45B2FF"/>
</linearGradient>
<linearGradient id="paint1_linear_106_110" x1="13.8843" y1="59.2397" x2="52.1653" y2="4.69422" gradientUnits="userSpaceOnUse">
<stop stop-color="#1724C9"/>
<stop offset="1" stop-color="#0092FF"/>
</linearGradient>
</defs>
</svg>
