<svg width="20" height="21" viewBox="0 0 20 21" fill="none" xmlns="http://www.w3.org/2000/svg">
<path d="M10.707 2.793C10.5195 2.60553 10.2652 2.50021 10 2.50021C9.73483 2.50021 9.48052 2.60553 9.293 2.793L2.293 9.793C2.11084 9.9816 2.01004 10.2342 2.01232 10.4964C2.0146 10.7586 2.11977 11.0094 2.30518 11.1948C2.49058 11.3802 2.7414 11.4854 3.00359 11.4877C3.26579 11.49 3.51839 11.3892 3.707 11.207L4 10.914V17.5C4 17.7652 4.10535 18.0196 4.29289 18.2071C4.48043 18.3946 4.73478 18.5 5 18.5H7C7.26521 18.5 7.51957 18.3946 7.7071 18.2071C7.89464 18.0196 8 17.7652 8 17.5V15.5C8 15.2348 8.10535 14.9804 8.29289 14.7929C8.48043 14.6054 8.73478 14.5 9 14.5H11C11.2652 14.5 11.5196 14.6054 11.7071 14.7929C11.8946 14.9804 12 15.2348 12 15.5V17.5C12 17.7652 12.1054 18.0196 12.2929 18.2071C12.4804 18.3946 12.7348 18.5 13 18.5H15C15.2652 18.5 15.5196 18.3946 15.7071 18.2071C15.8946 18.0196 16 17.7652 16 17.5V10.914L16.293 11.207C16.4816 11.3892 16.7342 11.49 16.9964 11.4877C17.2586 11.4854 17.5094 11.3802 17.6948 11.1948C17.8802 11.0094 17.9854 10.7586 17.9877 10.4964C17.9899 10.2342 17.8892 9.9816 17.707 9.793L10.707 2.793V2.793Z" fill="#374151"/>
</svg>
