<svg width="16" height="17" viewBox="0 0 16 17" fill="none" xmlns="http://www.w3.org/2000/svg">
<path d="M8.707 0.793C8.51947 0.605529 8.26516 0.500214 8 0.500214C7.73483 0.500214 7.48052 0.605529 7.293 0.793L0.292995 7.793C0.110837 7.9816 0.0100427 8.2342 0.0123211 8.4964C0.0145995 8.7586 0.119769 9.00941 0.305177 9.19482C0.490585 9.38023 0.741397 9.4854 1.00359 9.48767C1.26579 9.48995 1.51839 9.38916 1.707 9.207L2 8.914V15.5C2 15.7652 2.10535 16.0196 2.29289 16.2071C2.48043 16.3946 2.73478 16.5 3 16.5H5C5.26521 16.5 5.51957 16.3946 5.7071 16.2071C5.89464 16.0196 6 15.7652 6 15.5V13.5C6 13.2348 6.10535 12.9804 6.29289 12.7929C6.48042 12.6054 6.73478 12.5 7 12.5H9C9.26521 12.5 9.51957 12.6054 9.7071 12.7929C9.89464 12.9804 10 13.2348 10 13.5V15.5C10 15.7652 10.1054 16.0196 10.2929 16.2071C10.4804 16.3946 10.7348 16.5 11 16.5H13C13.2652 16.5 13.5196 16.3946 13.7071 16.2071C13.8946 16.0196 14 15.7652 14 15.5V8.914L14.293 9.207C14.4816 9.38916 14.7342 9.48995 14.9964 9.48767C15.2586 9.4854 15.5094 9.38023 15.6948 9.19482C15.8802 9.00941 15.9854 8.7586 15.9877 8.4964C15.9899 8.2342 15.8892 7.9816 15.707 7.793L8.707 0.793Z" fill="#374151"/>
</svg>
